/* XPM */
static char *result[] = {
/* columns rows colors chars-per-pixel */
"64 64 100 2 ",
"   c #050302",
".  c #0A0605",
"X  c #0F0708",
"o  c #0D0808",
"O  c #110606",
"+  c #12070B",
"@  c #110909",
"#  c #1B0B0E",
"$  c #1D0C13",
"%  c #230D13",
"&  c #2B0F13",
"*  c #260E1A",
"=  c #280F1B",
"-  c #330F12",
";  c #2C1114",
":  c #2C131D",
">  c #331116",
",  c #381117",
"<  c #34141A",
"1  c #3C141B",
"2  c #34191E",
"3  c #39191F",
"4  c #341523",
"5  c #3B1625",
"6  c #351822",
"7  c #3D1925",
"8  c #3F1728",
"9  c #3D192A",
"0  c #3F2026",
"q  c #44151D",
"w  c #4A151F",
"e  c #43191E",
"r  c #441623",
"t  c #4D1620",
"y  c #431B23",
"u  c #4C1A24",
"i  c #42162A",
"p  c #441A2D",
"a  c #4B1B2C",
"s  c #561724",
"d  c #531C25",
"f  c #5B1B26",
"g  c #541D2B",
"h  c #5B1D2B",
"j  c #471C30",
"k  c #4D1C33",
"l  c #531D34",
"z  c #5A1E35",
"x  c #551E39",
"c  c #5B1F3B",
"v  c #631E2C",
"b  c #631F33",
"n  c #631E3C",
"m  c #56212A",
"M  c #5B212C",
"N  c #522036",
"B  c #5B2133",
"V  c #55213A",
"C  c #5C213C",
"Z  c #63222C",
"A  c #6A212D",
"S  c #73232F",
"D  c #642233",
"F  c #6C2233",
"G  c #62213C",
"H  c #6C223B",
"J  c #732433",
"K  c #7B2535",
"L  c #772834",
"P  c #7C2935",
"I  c #74243B",
"U  c #7C253C",
"Y  c #752A38",
"T  c #7D2839",
"R  c #6D1F43",
"E  c #652141",
"W  c #692142",
"Q  c #722342",
"!  c #7B2542",
"~  c #7C2548",
"^  c #842736",
"/  c #892736",
"(  c #832937",
")  c #8A2837",
"_  c #83273B",
"`  c #89273C",
"'  c #84293B",
"]  c #8C2A3B",
"[  c #942B3D",
"{  c #9B2C3E",
"}  c #A22D3F",
"|  c #842641",
" . c #892740",
".. c #862843",
"X. c #8C2942",
"o. c #922740",
"O. c #932A42",
"+. c #9C2C41",
"@. c #A32C41",
"#. c None",
/* pixels */
"#.#.#.#.#.#.#.#.#.#.#.#.#.#.#.#.#.#.#.#.#.#.#.#.#.#.#.#.#.#.#.#.#.#.#.#.#.#.#.#.#.#.#.#.#.#.#.#.#.#.#.#.#.#.#.#.#.#.#.#.#.#.#.#.",
"#.#.#.#.#.#.#.#.#.#.#.#.#.#.#.#.#.#.#.#.#.#.#.#.#.#.#.#.#.#.#.#.#.#.#.#.#.#.#.#.#.#.#.#.#.#.#.#.#.#.#.#.#.#.#.#.#.#.#.#.#.#.#.#.",
"#.#.#.#.#.#.#.#.#.#.#.#.#.#.#.#.#.#.#.#.#.#.#.#.#.#.#.#.#.#.#.#.#.#.#.#.#.#.#.#.#.#.#.#.#.#.#.#.#.#.#.#.#.#.#.#.#.#.#.#.#.#.#.#.",
"#.#.#.#.#.#.#.#.#.#.#.#.#.#.#.#.#.#.#.#.#.#.#.#.#.#.#.#.#.#.#.#.#.#.#.#.#.#.#.#.#.#.#.#.#.#.#.#.#.#.#.#.#.#.#.#.#.#.#.#.#.#.#.#.",
"#.#.#.#.#.#.#.#.#.#.#.#.#.#.#.#.#.#.#.#.#.#.#.#.#.#.#.#.#.#.#.#.#.#.#.#.#.#.#.#.#.#.#.#.#.#.#.#.#.#.#.#.#.#.#.#.#.#.#.#.M M u < ",
"#.#.#.#.#.#.#.#.#.#.#.#.#.#.#.#.#.#.#.#.#.#.#.#.#.#.#.#.#.#.#.#.#.#.#.#.#.#.#.#.#.#.#.#.#.#.#.#.#.#.#.#.#.#.#.#.0 2 u f m s e #.",
"#.#.#.#.#.#.#.#.#.#.#.#.#.#.#.#.#.#.#.#.#.#.#.#.#.#.#.#.#.#.#.#.#.#.#.#.#.#.#.#.#.#.#.#.#.#.#.#.#.#.#.#.#.M B m M F h h f u 1 #.",
"#.#.#.#.#.#.#.#.#.#.#.#.#.#.#.#.#.#.#.#.#.#.#.#.#.#.#.#.#.#.#.#.#.#.#.#.#.#.#.#.#.#.#.#.#.#.#.#.#.#.#.#.u m M J Y D d u q 1 #.#.",
"#.#.#.#.#.#.#.#.#.#.#.#.#.#.#.#.#.#.#.#.#.#.#.#.#.#.#.#.#.#.#.#.#.#.#.#.#.#.#.#.#.#.#.#.#.#.#.#.#.#.2 1 u h f d Z M w q q r #.#.",
"#.#.#.#.#.#.#.#.#.#.#.#.#.#.#.#.#.#.#.#.#.#.#.#.#.#.#.#.#.#.#.#.#.#.#.#.#.#.#.#.#.#.#.#.#.#.#.#.@ ; e w w w q s v s w w w 1 #.#.",
"#.#.#.#.#.#.#.#.#.#.#.#.#.#.#.#.#.#.#.#.#.#.#.#.#.#.#.#.#.#.#.#.#.#.#.#.#.#.#.#.#.#.#.#.#.#.; @ $ ; e , q q w t q q q w w #.#.#.",
"#.#.#.#.#.#.#.#.#.#.#.#.#.#.#.#.#.#.#.#.#.#.#.#.#.#.#.#.#.#.#.#.#.#.#.#.#.#.#.#.#.#.#.#.#.m 2 X # % ; < , , q 1 1 q w q 1 #.#.#.",
"#.#.#.#.#.#.#.#.#.#.#.#.#.#.#.#.#.#.#.#.#.#.#.#.#.#.#.#.#.#.#.#.#.#.#.#.#.#.#.#.#.#.#.y Z Z O X # # ; > 1 1 1 q t e 1 6 #.#.#.#.",
"#.#.#.#.#.#.#.#.#.#.#.#.#.#.#.#.#.#.#.#.#.#.#.#.#.#.#.#.#.#.#.#.#.#.#.#.#.#.#.#.#.#.e L [ d   . X # ; , , , t t 1 1 a V #.#.#.#.",
"#.#.#.#.#.#.#.#.#.#.#.#.#.#.#.#.#.#.#.#.#.#.#.#.#.#.#.#.#.#.#.#.#.#.#.#.#.#.#.#.#.m P [ } S .   X # > > , q q 1 r n Q k #.#.#.#.",
"#.#.#.#.#.#.#.#.#.#.#.#.#.#.#.#.#.#.#.#.#.#.#.#.#.#.#.#.#.#.#.#.#.#.#.#.#.#.#.M L ( { } } { d O   X # % , r a n | X.H #.#.#.#.#.",
"#.#.#.#.#.#.#.#.#.#.#.#.#.#.#.#.#.#.#.#.#.#.#.#.#.#.#.#.#.#.#.#.#.#.#.#.#.#.u / [ ^ [ @.} } { K d w e M H U O.+.O.Q j #.#.#.#.#.",
"#.#.#.#.#.#.#.#.#.#.#.#.#.#.#.#.#.#.#.#.#.#.#.#.#.#.#.#.#.#.#.#.Z ] [ L 1 u ` [ @.J J @.} } { ) ) ] [ +.@.@.O.| R x #.#.#.#.#.#.",
"#.#.#.#.#.#.#.#.#.#.#.#.#.#.#.#.#.#.#.#.#.#.#.#.#.#.#.#.#.#.#.F ] [ ] ! d J { { } } [ +.@.} ) K ^ ] { @.@.+.! R E 4 #.#.#.#.#.#.",
"#.#.#.#.#.#.#.#.#.#.#.#.#.#.#.#.#.#.#.#.#.#.#.#.#.#.#.#.#.#.#.g ' J L D P / [ X.} } @.K / } } ] / { @.+.X.! W E i #.#.#.#.#.#.#.",
"#.#.#.#.#.#.#.#.#.#.#.#.#.#.#.#.#.#.#.#.#.#.#.#.#.#.#.#.#.#.3 u Y f +.( [ @.+.o.` +.o.o.S v S ' ^ ] U Q W W E p #.#.#.#.#.#.#.#.",
"#.#.#.#.#.#.#.#.#.#.#.#.#.#.#.#.#.#.#.#.#.#.#.#.#.#.#.#.#.#.Y J v ( h I +.@.} @.o.|  .| U F A J S a z W R C j #.#.#.#.#.#.#.#.#.",
"#.#.#.#.#.#.#.#.#.#.#.#.#.#.#.#.#.#.#.#.#.#.#.#.#.#.#.#.#.#.L J , f g D +.@.@.@.@.O._ ! I b D B H W W G k #.#.#.#.#.#.#.#.#.#.#.",
"#.#.#.#.#.#.#.#.#.#.#.#.#.#.#.#.#.#.#.#.#.#.#.#.#.#.#.#.#.u [ ] h a l ` @.@.@.@.@.@.@.o._ b H Q E E C #.#.#.#.#.#.#.#.#.#.#.#.#.",
"#.#.#.#.#.#.#.#.#.#.#.#.#.#.#.#.#.#.#.#.#.#.#.#.#.#.#.#.d d ` [ F B U @.@.[ K J Z ' +.@.@.O.Q n x k #.#.#.#.#.#.#.#.#.#.#.#.#.#.",
"#.#.#.#.#.#.#.#.#.#.#.#.#.#.#.#.#.#.#.#.#.#.#.#.#.#.D Z J / { } +.{ @.@.` K ` O.J f [ @.+.| W p $ #.#.#.#.#.#.#.#.#.#.#.#.#.#.#.",
"#.#.#.#.#.#.#.#.#.#.#.#.#.#.#.#.#.#.#.#.#.#.#.#.#.M ( [ { { @.@.@.+.^ J _ +.{ ^ ( ] } } +...l #.#.#.#.#.#.#.#.#.#.#.#.#.#.#.#.#.",
"#.#.#.#.#.#.#.#.#.#.#.#.#.#.#.#.#.#.#.#.#.#.#.#.#.M @.@.} @.@.+.L f h ] @.@.[ Z y g U | Q x #.#.#.#.#.#.#.#.#.#.#.#.#.#.#.#.#.#.",
"#.#.#.#.#.#.#.#.#.#.#.#.#.#.#.#.#.#.#.#.#.#.#.#.< L [ ` ^ ] J f f P +.} @.o.b J Z B B V j #.#.#.#.#.#.#.#.#.#.#.#.#.#.#.#.#.#.#.",
"#.#.#.#.#.#.#.#.#.#.#.#.#.#.#.#.#.#.#.#.#.#.#.#.3 g J I U _ _ [ @.@.@.' K _ U ' | H C 9 #.#.#.#.#.#.#.#.#.#.#.#.#.#.#.#.#.#.#.#.",
"#.#.#.#.#.#.#.#.#.#.#.#.#.#.#.#.#.#.#.#.#.#.#.; e F +.@.@.[ ] ] o.O.+.[ +.@.{ [ O.! R j #.#.#.#.#.#.#.#.#.#.#.#.#.#.#.#.#.#.#.#.",
"#.#.#.#.#.#.#.#.#.#.#.#.#.#.#.#.#.#.#.#.#.e d ] [ { } } ^ A K ) +.@.@.@.{ ` ^ ] I p 4 #.#.#.#.#.#.#.#.#.#.#.#.#.#.#.#.#.#.#.#.#.",
"#.#.#.#.#.#.#.#.#.#.#.#.#.#.#.#.#.#.#.#.M ( ( ` [ { { J A ] @.@.@.@.@.[ I ( X.H < #.#.#.#.#.#.#.#.#.#.#.#.#.#.#.#.#.#.#.#.#.#.#.",
"#.#.#.#.#.#.#.#.#.#.#.#.#.#.#.#.#.#.#.A P [ ] K P F F / @.@.@.+.o.] ^ ^ X...l = #.#.#.#.#.#.#.#.#.#.#.#.#.#.#.#.#.#.#.#.#.#.#.#.",
"#.#.#.#.#.#.#.#.#.#.#.#.#.#.#.#.#.#.A [ } { [ F h J O.@.@.+._ b d d J J b a : #.#.#.#.#.#.#.#.#.#.#.#.#.#.#.#.#.#.#.#.#.#.#.#.#.",
"#.#.#.#.#.#.#.#.#.#.#.#.#.#.#.#.#.F +.O.^ I F J [ @.@._ F h v K _ F I U U B #.#.#.#.#.#.#.#.#.#.#.#.#.#.#.#.#.#.#.#.#.#.#.#.#.#.",
"#.#.#.#.#.#.#.#.#.#.#.#.#.#.#.#.y F F b L ] @.@.@.] F J ' [ } } ( | ! T I a #.#.#.#.#.#.#.#.#.#.#.#.#.#.#.#.#.#.#.#.#.#.#.#.#.#.",
"#.#.#.#.#.#.#.#.#.#.#.#.#.h D Z ^ ] +.@.@.@.@.+.^ J ] @.@.} } @.O.F k z p #.#.#.#.#.#.#.#.#.#.#.#.#.#.#.#.#.#.#.#.#.#.#.#.#.#.#.",
"#.#.#.#.#.#.#.#.#.#.#.p H O.@.@.@.@.@.@.@.O.^ _ [ @.@.@.@.@.@.@.F l C p #.#.#.#.#.#.#.#.#.#.#.#.#.#.#.#.#.#.#.#.#.#.#.#.#.#.#.#.",
"#.#.#.#.#.#.#.#.#.#.i I +.@.@.@.@.@.[ / ( f x U +.@.@.@.@.@.+.F l C p C p #.#.#.#.#.#.#.#.#.#.#.#.#.#.#.#.#.#.#.#.#.#.#.#.#.#.#.",
"#.#.#.#.#.#.#.#.#.#.V O.[ ( { @.^ v v K [ / ^ ) J [ @.} @.@.J g D p 5 i k #.#.#.#.#.#.#.#.#.#.#.#.#.#.#.#.#.#.#.#.#.#.#.#.#.#.#.",
"#.#.#.#.#.#.#.#.#.$ B ` ( [ / v b P [ } [ K ) K f O.@.@.} J F ` X.7 # p j #.#.#.#.#.#.#.#.#.#.#.#.#.#.#.#.#.#.#.#.#.#.#.#.#.#.#.",
"#.#.#.#.#.#.#.#.9 4 D { @.I f ] [ K S S A K { { ' @.} [ J I +.( f 4 $ p 4 #.#.#.#.#.#.#.#.#.#.#.#.#.#.#.#.#.#.#.#.#.#.#.#.#.#.#.",
"#.#.#.#.#.#.#.j p 5 J } / u ` ` K [ } } { @.@.} @.[ K J ` X.D x x C C x #.#.#.#.#.#.#.#.#.#.#.#.#.#.#.#.#.#.#.#.#.#.#.#.#.#.#.#.",
"#.#.#.#.#.#.N p p l [ [ g H U ^ { @.@.@.} +.[ ] L F I +.} I c ~ ~ c 5 p #.#.#.#.#.#.#.#.#.#.#.#.#.#.#.#.#.#.#.#.#.#.#.#.#.#.#.#.",
"#.#.#.#.#.p k c l I { A a n | ` ! H F b b v D F I I v P J x I O.I *   #.#.#.#.#.#.#.#.#.#.#.#.#.#.#.#.#.#.#.#.#.#.#.#.#.#.#.#.#.",
"#.#.#.#.#.5 k C l U ] h p k z l l h b F T _ U J I Q n g a n O.| 4 #.#.#.#.#.#.#.#.#.#.#.#.#.#.#.#.#.#.#.#.#.#.#.#.#.#.#.#.#.#.#.",
"#.#.#.#.6 p c x k _ ^ l : 5 x T X.@.@.+.' H H ..+.] U ^ X.O...H = #.#.#.#.#.#.#.#.#.#.#.#.#.#.#.#.#.#.#.#.#.#.#.#.#.#.#.#.#.#.#.",
"#.#.#.#.k C H x g ` I i 4 H O.' S [ { h a y a A S v [ @._ G k V 6 #.#.#.#.#.#.#.#.#.#.#.#.#.#.#.#.#.#.#.#.#.#.#.#.#.#.#.#.#.#.#.",
"#.#.9 k x W E x B _ G i n O.[ d > ) Z l R H _ ^ [ { +.b r #.#.#.#.#.#.#.#.#.#.#.#.#.#.#.#.#.#.#.#.#.#.#.#.#.#.#.#.#.#.#.#.#.#.#.",
"p V G l c W G x ! I x l ` +./ % e J k c E X.+.O.O._ f % #.#.#.#.#.#.#.#.#.#.#.#.#.#.#.#.#.#.#.#.#.#.#.#.#.#.#.#.#.#.#.#.#.#.#.#.",
"< k x 9 c W C a B k x  .@.} P 6 g g p j k c B g k k 9 #.#.#.#.#.#.#.#.#.#.#.#.#.#.#.#.#.#.#.#.#.#.#.#.#.#.#.#.#.#.#.#.#.#.#.#.#.",
"#.#.#.#.i l p 5 a z X.@.@.@.[ F l k c c 5 5 j x E N #.#.#.#.#.#.#.#.#.#.#.#.#.#.#.#.#.#.#.#.#.#.#.#.#.#.#.#.#.#.#.#.#.#.#.#.#.#.",
"#.#.#.#.5 p x D U O.+.@.@.@.] H c C G x k 9 p C j #.#.#.#.#.#.#.#.#.#.#.#.#.#.#.#.#.#.#.#.#.#.#.#.#.#.#.#.#.#.#.#.#.#.#.#.#.#.#.",
"#.#.: j C W ! _ ( P o.@.o.J z E W G C l 5 * : #.#.#.#.#.#.#.#.#.#.#.#.#.#.#.#.#.#.#.#.#.#.#.#.#.#.#.#.#.#.#.#.#.#.#.#.#.#.#.#.#.",
"#.4 N C C C B C H D g B a k E E x N 9 5 $ #.#.#.#.#.#.#.#.#.#.#.#.#.#.#.#.#.#.#.#.#.#.#.#.#.#.#.#.#.#.#.#.#.#.#.#.#.#.#.#.#.#.#.",
"#.N x j 4 $ @ @ $ 4 i l l k k k c C c p #.#.#.#.#.#.#.#.#.#.#.#.#.#.#.#.#.#.#.#.#.#.#.#.#.#.#.#.#.#.#.#.#.#.#.#.#.#.#.#.#.#.#.#.",
"4 V #.#.#.#.#.#.$ i E E E E x k x E x #.#.#.#.#.#.#.#.#.#.#.#.#.#.#.#.#.#.#.#.#.#.#.#.#.#.#.#.#.#.#.#.#.#.#.#.#.#.#.#.#.#.#.#.#.",
"4 9 #.#.#.#.#.#.p 5 i k a i k x c x #.#.#.#.#.#.#.#.#.#.#.#.#.#.#.#.#.#.#.#.#.#.#.#.#.#.#.#.#.#.#.#.#.#.#.#.#.#.#.#.#.#.#.#.#.#.",
"#.#.#.#.#.#.#.V E E V l x z x k j #.#.#.#.#.#.#.#.#.#.#.#.#.#.#.#.#.#.#.#.#.#.#.#.#.#.#.#.#.#.#.#.#.#.#.#.#.#.#.#.#.#.#.#.#.#.#.",
"#.#.#.#.#.#.p V k #.#.#.l p 6 #.#.#.#.#.#.#.#.#.#.#.#.#.#.#.#.#.#.#.#.#.#.#.#.#.#.#.#.#.#.#.#.#.#.#.#.#.#.#.#.#.#.#.#.#.#.#.#.#.",
"#.#.#.#.#.#.#.#.#.#.#.#.#.#.#.#.#.#.#.#.#.#.#.#.#.#.#.#.#.#.#.#.#.#.#.#.#.#.#.#.#.#.#.#.#.#.#.#.#.#.#.#.#.#.#.#.#.#.#.#.#.#.#.#.",
"#.#.#.#.#.#.#.#.#.#.#.#.#.#.#.#.#.#.#.#.#.#.#.#.#.#.#.#.#.#.#.#.#.#.#.#.#.#.#.#.#.#.#.#.#.#.#.#.#.#.#.#.#.#.#.#.#.#.#.#.#.#.#.#.",
"#.#.#.#.#.#.#.#.#.#.#.#.#.#.#.#.#.#.#.#.#.#.#.#.#.#.#.#.#.#.#.#.#.#.#.#.#.#.#.#.#.#.#.#.#.#.#.#.#.#.#.#.#.#.#.#.#.#.#.#.#.#.#.#."
};
