/* XPM */
static char *_6db7e08901b419f8e00da0c6eb7b804KuW31EoZgm3VD1Yh[] = {
/* columns rows colors chars-per-pixel */
"64 64 157 2 ",
"   c #24353D",
".  c #2C3E45",
"X  c #2F4047",
"o  c #2F4048",
"O  c #34454D",
"+  c #36494F",
"@  c #384B4F",
"#  c #374950",
"$  c #3B4D54",
"%  c #3D5057",
"&  c #3F5159",
"*  c #404E57",
"=  c #43555C",
"-  c #48555E",
";  c #45585E",
":  c #475961",
">  c #4B5D64",
",  c #505D66",
"<  c #4D6067",
"1  c #4F6168",
"2  c #52656C",
"3  c #59666F",
"4  c #55686F",
"5  c #576970",
"6  c #5B6D74",
"7  c #5D7077",
"8  c #5E7279",
"9  c #616E77",
"0  c #616F78",
"q  c #62747C",
"w  c #68757E",
"e  c #65787F",
"r  c #647680",
"t  c #697780",
"y  c #677981",
"u  c #6B7D84",
"i  c #6D8087",
"p  c #6F8188",
"a  c #72848C",
"s  c #75888F",
"d  c #748690",
"f  c #7A8790",
"g  c #778A91",
"h  c #7B8D94",
"j  c #7D9097",
"k  c #7F9198",
"l  c #82949C",
"z  c #85989F",
"x  c #8A97A0",
"c  c #8799A0",
"v  c #8A9DA4",
"b  c #8C9EA8",
"n  c #909EA7",
"m  c #8DA0A7",
"M  c #8EA1A8",
"N  c #92A5AC",
"B  c #95A8AF",
"V  c #98ABAF",
"C  c #95A7B1",
"Z  c #97A9B1",
"A  c #9AADB4",
"S  c #9DAFB9",
"D  c #9DB0B7",
"F  c #9EB1B9",
"G  c #A1AFB8",
"H  c #A3B5BC",
"J  c #A5B8BF",
"K  c #A5B7C1",
"L  c #A7B9C0",
"P  c #ABBDC4",
"I  c #ADBFC9",
"U  c #B1BEC7",
"Y  c #B1BFC8",
"T  c #ADC0C7",
"R  c #AFC1C8",
"E  c #B3C6CD",
"W  c #B2C5CC",
"Q  c #B4C5CD",
"!  c #B4C7CE",
"~  c #B5C6CE",
"^  c #B6C7CF",
"/  c #B3C4CC",
"(  c #B8C6CF",
")  c #B5C8CF",
"_  c #B5C8CF",
"`  c #B8CBCF",
"'  c #B4C6D0",
"]  c #B6C9D0",
"[  c #B7C8D0",
"{  c #B7CAD1",
"}  c #B7C9D1",
"|  c #B8C9D1",
" . c #B8CBD2",
".. c #B9CAD2",
"X. c #BACBD3",
"o. c #B9CCD3",
"O. c #BACDD4",
"+. c #BBCCD4",
"@. c #BBCED5",
"#. c #BCCDD5",
"$. c #BCCFD6",
"%. c #BDCED6",
"&. c #BECFD7",
"*. c #BBCCD4",
"=. c #BDCFD9",
"-. c #BDD0D7",
";. c #BDD0D6",
":. c #BFD0D8",
">. c #BED1D8",
",. c #BFD2D9",
"<. c #BFD1D8",
"1. c #C1CFD8",
"2. c #C0D3D7",
"3. c #C0D1D9",
"4. c #C1D2DA",
"5. c #C0D3DA",
"6. c #C2D3DB",
"7. c #C1D4DB",
"8. c #C3D4DC",
"9. c #C2D5DC",
"0. c #C3D6DD",
"q. c #C4D7DE",
"w. c #C5D6DE",
"e. c #C6D7DF",
"r. c #C2D4DC",
"t. c #C5D8DF",
"y. c #C5D8DF",
"u. c #C8DBDF",
"i. c #C4D6E0",
"p. c #C7D8E0",
"a. c #C6D9E0",
"s. c #C7DAE1",
"d. c #C7D9E0",
"f. c #C9DAE2",
"g. c #C8DBE2",
"h. c #CADBE3",
"j. c #C9DCE3",
"k. c #CADDE4",
"l. c #CBDCE4",
"z. c #CBDEE5",
"x. c #CCDDE5",
"c. c #CDDEE6",
"v. c #CADCE4",
"b. c #CCDEE8",
"n. c #D0DEE7",
"m. c #D1DFE8",
"M. c #CDE0E7",
"N. c #CEE1E8",
"B. c #CFE0E8",
"V. c #CFE1E9",
"C. c #D1E2EA",
"Z. c #D1E4EB",
"A. c #D3E6ED",
"S. c #D2E4EC",
"D. c #D8E6EF",
"F. c #D7EAEE",
"G. c #D7E8F0",
/* pixels */
"B ) ,.W T W ) { { W W ! W W { 7.v j P { 7.-.O.T W B 1 Z t.! O.O.O.,.7.,.9.F N p L J W O.{ ) o. .! F y j { W P W $.H J W ) ,.P a ",
"N H R ) O.) R ! ) ! ) ) ) ) {  .s p F P  .-.5.W ) F y P t.! $.W W W  .{ O.F B e o.O.o. . . .{ { o.W h L L P ! ,. .M k z B R P h ",
"Z Z D W 5.) T O.L R W R W { W J 6 8 N A J W O.R P M i ! -.R $.T o.W $.$.-.W P u P $.o.W ,.,.! { O.R q W H ) o.P S v z z l N N s ",
"S Z B H R P P o.P {  .W W ) L m 5 e S A S P O.W ! k u ,.9.{ t.)  .P { W W W W e v W { R $.{ H L O.) 2 L W O.W Z b b B B v c l y ",
"b A A B A A F P P { ! L J J M a 1 q D Z B F ) W O.u 6 $.q.{ 9.O.q.{ ,.{ ) O.-.p M O.,.W W L N Z L $.6 c O.L F b Z b z c N A v u ",
"a N H Z B A A A J R T H H H M s 2 8 A A A J o.o.L 6 2 { s.5.s.s.,.o.,.) { W ! a H O.O.P H Z N S D { 8 y ,.P H m M m c c M N l u ",
"4 l S A Z Z B Z F J H A Z Z c g 5 5 v N A F P J l 1 5 R O.o.O.$.7.s.M.t.k.$.) l N N b l g s h z H R y 4 D H A l p k l h s u 6 4 ",
"= u c M N M M B l l h a y 6 > % $ . 4 q p i i q > + ; c v z k j c B S Z F c h 2 u 7 5 2 : ; < 2 z Z y $ : 2 6 1 8 e 5 < 2 2 ; $ ",
"= : 2 g l 5 ; = = = > = . 1 > u k z N F J H B b l g y 8 1 ; = : 4 2 1 5 q y q 6 = $ O > = # : ; 4 6 6 4 6 e e 6 2 < u s g B N h ",
"= N O.O.{ W A u > q T ! P o.$.s.5.,.,.,.7.7.,.O.,.o.O.9.z : u F O.{ !  .,.9.7.-.L k 1 $ > a k p h h l N H P P T s 2 N N.9.o.J h ",
"z $.j.,.O.5.k.,.a p 7.5.! W { T o.{ W W )  .O.$.O.W ! Z.Z 1 Z A.) W W W W ! ! W s.) A 5 7 A F N N M Z T O.{ W  .o.u B j.P H A p ",
"H P L O.9.W O.s.,.h L O.! ,.q.) W W )  .o. .{ ! O.o.P { c < H $.R R R R T P P T L  .k.a u F Z A A S L { o.W P T s.M P ,.S S z = ",
"D W W O.s.9.7.{ q.q g { T 9.o.W O.-.,.-.{ T J F P 5.-.O.c ; Z ! L P R W R P P P P P ,.q a H N Z B L  .$.-.5.5.-. .H { $.P L h $ ",
"S O. .{ O.$.g.g.g.e h 9.R o.P ) { ) W P H Z N N N H R ,.L 1 v o.P R ) o.o.{ ! W W P ! 6 h J Z H F ! 7.$. .,.,.o.9.F L W R H s 1 ",
"v P { t.s.W { O.W q c O.W ) W ,.W W P H D A D H J A L  .q.q s P P P R W ) ! W W R W { q c L L R $.7.9.7.,.$.O. .q.m L j.5.R k : ",
"m W { { -.-.-.T H q N W ,.W R P Z Z N b c z c v Z N F H $.y p P R R R W ! { ! W ) ) P 4 v W O.{ o.R R O.5.-.-.9.,.g Z ,.T ! B = ",
"l B  .k.5.{ { W J q u l c u u 7 8 7 < > : 2 = 8 e M M L H u h H P P W ,.{ J P O.o.P B 4 h ) ,.R ! 5.! ! 5.5.{ g.W 4 N 5.P  .N 4 ",
"a v J W ) { W W Z > 8 s s e y e y p u i 8 4 O > & q y a h q g L P R { ) H M M A W { J 4 6 k B F S J L J ! k.q.P H $ z p.! g.H ; ",
"e v S F W $.! W F 2 v P W { 5.k.g.Z.N.j.L c 6 s A B g 5 5 q h 9.P W { P N l k z z Z M ; & 2 u k z z B N Z $.G.q.y   c c.L 5. .p ",
"6 M D Z R $.W T N > S { W o.) ,.$.9.5.-.H c e v P W s.s.q.o.m O.R ) W H N M M b z M h > 6 7 8 e t 6 q q a a s a 2 O l H y y u > ",
"4 M S b H W R W N q { q.{ { P ! W  .{  .H v e l F Z L W ) W h W P L A v c M M c c b h g  .9.q.t.c.H 6 $ l N Z L W H ! [ J Z k q ",
"7 N H N S W o.o.s y ) $. .o.) ,.W O.O.5.W N 1 < Z Z H { O.O.g D W L B z c N M z N N a a ! P L P /  .N u q.c.$. .q.g.5.5.C.s.H c ",
"6 z F A D R W H 8 g  .o.$.W W ! L W W $.,.P 6 ; g N N P ! 9.h c ! J N c v M v c h l q a O.P L W P O.P h  .! ! ! W $. .! $.! A l ",
"= y M Z Z D N a & g ) O.s. .{ W O. .P W O.W q = a F F ! { 5.a 6 l s y q q q q q 4 6 ; y ,.P L R W H H N q./ $.[ ! ! /  . .$.! c ",
"= = = 6 q 6 y u > u ,.-.$.t.7.W L 5.$. . .W t ; h S O.$.L g.b   = > 2 8 q q 7 6 2 = $ q A Z P ) J ! M c g.$.5.! R !  .W W $.[ S ",
"2 Z A z B P R B u e O.s.,.,.5.N.5. .Y I ! W q 2 c W W W ,. .u y Z A H P W W W W J z 8 u H B Z A P ! g l g. .5.,.$.O.$.! / O.[ H ",
"s 9.7.R -. .P L h 5 W t.5.5.W O.g.X.( / $.1.q > n ! X.! n.! 0 J s.q.7.,.5.5.,.-.O.H p u L A A H R W q h C. .5.q.q.,.$.$.!  .! L ",
"M ) { o.) Z v m 5 < 5.k.9.A.s.t.6.w.m.$.$.6.6 = A P 6. .+.P t W $.{ W W W ! ! ! { { v j W D A P H P 4 g A.5.q.5.5.$.5.5. .[ ! P ",
"Z ) ,.R Z A A y ; > W J v B A L | +.6./ J H 9 q Q | $.W ( G 6 ! g.9.$.O.O.O.{ ! R  .N k W J H T J R 5 u ! W P J  .$.g.c.q.$. .W ",
"T  .5.W M S D 2 : % u 6 5 4 5 6 a a u a t 0 > a Y 5.U Q D.S = U c.g.9.9.s.s.7.$.-.O.M k { { W P W L 5 2 u a y t q t s g a u e 4 ",
"{ ! ) O.L Z c 4 & 2 u u b v s > $ 9 3 t w 6 , 3 a c f v U x - n A Z Z F P W W T W P z a F H J N S l > = $ ; $ 2 e y a a a a q = ",
"P $.{ $.,.P M y $ D k.5.A.,.Z > e X.+.f.1.Y x 2 O O . * - 6 6 u s u q 8 8 6 4 1 = > & # q u k a s 2 $ ; # > = u 5.$.$.+.5.p.P l ",
"S $.O.$.L  .H a > S $.L P q.J 2 L { O.O.9.9.$.5.q z  .Z J  .!  .=.=.=. .! P 4 = u a g c Z H H H z u 6 1 = > & k W P L L I P P $.",
"l 5.$.$./ $.S 5 > P q.q.$.R L y H R { o.,.9.7.t.L B  .W ,.,.[ =.[ [ P P 5. .y a C.c.q.$. .O.5.5.$.5.+.P P $.z l  .! ! ! ! W P L ",
"a  .P !  .$. .N # P W  . .L ! l P o.o.{ -.,.,.9.N a P $.$.W W $.L S S J ! +.p q R W  .$.$. .! ! P $.5.! 5.c.g 5 P L !  .W  .! A ",
">  .5. . .W W c 2 [ q.p.A.g.W s P o.O.{ O.-.-.9.P k W ! H Z Z b c a z B B +.b e 5. .P J L W O.5. .! ! [  .W y q P P  . .L ! $.A ",
"> q.c.H L $.q.N q l N z B H c a H W o.{ ,.,.,.s.A : 8 q 5 6 q > 5 2 5 e u c a b q.! S N B S L P $.! !  .! J 6 q ! W ! H c Z H z ",
"2 h h 5 6 5 q 4 5 = > ; ; 4 : 4 F E -.-.,.O.!  .D 2 h S H J ! $.5.C. .L S y O N W L A B N B B B J L W  .5.5.a 6  .W L N h c M h ",
"# > N L  .L J ! ! J O.$.P L c q Z R -.,.,.{ P P l q P q.$.{ 9.C.! q.p.q.! c 1 Z H B h e 4 2 6 e q u g g b H 6 > W P H N b N b l ",
"$ a A.,. .5.$. . .$.$. .! c.g.u l F W -.9.O.W W l h  .{ W  . .P c.W 5. .l l 6 ; p a u 6 > $ $ = ; > > ; 2 u = > Z N l g z l a q ",
"# S ! I $.! ! W R P ! P +.I q.8 h Z A W 9.W P W c v $.W ! ! ! $.{ !  .[  .l 4 c  .{  .q. .J c > = # # $ ; > > 2 1 5 6 6 q > 1 $ ",
"6 $.q.P I P ! ! $. .+.P +./ c.a p J F D { O.{ R h l $. .$. .W / W W  . .$.N u J !  . .5.5.q.5.B O s H P W W W W  .! W J L B l & ",
"g !  .W [ W I [ ! W  .P ! P 5.a 7 F A N R O.R H s l 5.5.5.5.! W W W  . .$.H g ! [ $.$.$. .g.C.L > ! C.g.q.$.q.+.5.5.q.,.c.A.s.u ",
"N H H P 5.{ I 5./ ! $.! $.W W y u F B B { { T R a l 5.=.5.5. . . .W ! ! +.L a L / 5.5.5./  . .c y g.$.L ! W 5.W P P +.W ! q.c.g ",
"b Z Z B H L J W W P W P P H b 1 g F N v P W W W 6 a 5.$.5.q.$.5.5.! ! /  .P q N J ! 5.q. .{ W h z g.W P 5.!  .P O.W  .! R W $.h ",
"q b P B N J S S  .! W J H Z h 2 e A D N L { R b ; u 9.q.q.s.q.q.5. . .[ ! / 4 h Z H L O. .! P h S q.! ! $.L P P  .P W ! 5.$.5.z ",
"; u Z v c Z c c k k h a y e 2 $ 5 l Z A F L S u $ y q.5.$.$.$.q.5.$.5.$.W ! > g S B Z W ! W J g P  .W W  .!  .5. .! W R ,. .! l ",
"# X ; : > 4 > 6 e p g a y y 4 < : 2 8 a u u u > $ e $.W J L P +.5.5.g.=.P P : g J Z Z ! $.! L h 5. .! P W  .I P P  . .L { ! $.Z ",
"u v l g v A T W W  .9.s.9.=.O.+.W F F e $ > ; & $ 5 a u e q y y h Z k s a q = 4 l B l J W N a c L 5.,.W ) W R O.R W ! 5.R R 7.A ",
"H u.-.W $.-.q.5.q.$.W / [ O.O.+.+.5.q.s # = ; 1 = 2 5 5 5 6 6 5 = > : q y e 2 6 q a u q q 1 O N A P W W ! W R W O.! T { W { O.c ",
"z o.-.) $. .) T { ! / W { +.+.+.! 5.$.g e S J L P P L L P W P S k q a R W -.$.,.W { t.! O.A # N A A P {  .{ { W R W W { W ! H y ",
"6 D E ) o.) o.! W o.5.=.W I W O. .=.L y u 5.5.{ ! [ ! !  .O.W J k.c M N.W R W L ,.T { W 7.o.5 k H B H W P R { R P  .,. .P P N q ",
"> V ` ` { W  . .{ O.W L C M A L ! q. .g 6 J J H W ! { W W !  . .W u k k.W W ,.O.! P R ! P ! m k H N B S B A L H W ! W F B Z l 8 ",
"> A o.` ! R ! W ) R H A Z Z Z Z A ! q.S y P W / ! ! W J S S L ! L p j 7.W R W R W  .) g.P P Z 5 Z Z A Z M B H F W P L S F F s 4 ",
"6 J 2.o.o.! W L F Z N Z A S S A Z S ! L e J W W L J Z b c z v N v q q F L W ! O.P L M J A H v > h Z H Z B Z Z A J A F Z A B e 2 ",
"; v D B Z M l p a p r 6 6 r d l Z B / L 2 N P  .Z B b b N M v c l 8 > p l N M A A F v S A N q % 4 z Z M N N c v k a p 5 4 2 $ : ",
"< s e 6 2 = 2 > 1 2 2 = $ = > 1 z z N z 5 : 6 u 4 u 6 4 6 2 2 > & & $ % = > 1 2 1 2 5 6 2 = # + + : 5 1 & 6 = = = 2 > : ; # % & ",
"$ > l N H T R J H H H H K F b g > ; 2 6 5 2 = . ; & q g s u u g b N Z F L P P P P H F F A N v b h = = h B R H W P ) P P J l 6 # ",
"= 1 u.t.-.g.-.-.k.t.5.9.c.V.9.W > a B P 5.5.W J q & z s.g.g. .p.,.-.$.$.,.5.5.5.q.-. .o.-.,.5.9.H 2 q O.t.O.P 9.O.5.{ q.c.,.L z ",
"+ e F.;.W ) R ) W W / R / +.p.b.5 B $.5.q.5.$.9.q.l u S / ! P $.{ ! W W { o. .{ P P P W { $.5.9.v 2 u 9.O.P H P L P H L L R $.R ",
"@ m -.H ) -.) W L R { { / R [ ,.h L  .! $.$.! / A.I 4 l !  .! 5.$.O.O.-.$.{ P H N B Z A S H L P R e 6 J P W W R T W R R H J W S ",
"; o.o.J ) ) ) T  .) { +.+.{ [ +.h S W ! $.g.q.,.W 5.q B q.$.I P T L S Z B N v z b m m M Z J W W Z.z q H P P W ! W R R { W  .$.B ",
"2 o.E o.P W ) o.O.W I R W [  .,.h Z  .=.!  .$. .g.$.5 y a a q q 6 4 1 1 2 2 > : > > > 4 u j l h c u 8 J T J R O.O.W P ! T )  .v ",
"z ` P 0.J -.) T W W [ +.' R / O.l M W =.[ $.q. .+.B 2 a g S N B D H L L H c e > & % = 1 u h a 8 : 2 2 N L R W R ! W { $.T W ) c "
};
